<svg xmlns="http://www.w3.org/2000/svg" width="1622" height="858" style="cursor: move;"><g transform="translate(-334.0390200281878,-245.43672902727042) scale(1.5735248907071284)"><path class="link" marker-end="" d="M651,339, 831,199" style="stroke-width: 0.5; stroke-opacity: 1; stroke: rgb(80, 80, 80); fill: none;"></path><path class="link" marker-end="" d="M651,339, 831,239" style="stroke-width: 0.5; stroke-opacity: 1; stroke: rgb(80, 80, 80); fill: none;"></path><path class="link" marker-end="" d="M651,339, 831,279" style="stroke-width: 0.5; stroke-opacity: 1; stroke: rgb(80, 80, 80); fill: none;"></path><path class="link" marker-end="" d="M651,339, 831,319" style="stroke-width: 0.5; stroke-opacity: 1; stroke: rgb(80, 80, 80); fill: none;"></path><path class="link" marker-end="" d="M651,339, 831,359" style="stroke-width: 0.5; stroke-opacity: 1; stroke: rgb(80, 80, 80); fill: none;"></path><path class="link" marker-end="" d="M651,339, 831,399" style="stroke-width: 0.5; stroke-opacity: 1; stroke: rgb(80, 80, 80); fill: none;"></path><path class="link" marker-end="" d="M651,339, 831,439" style="stroke-width: 0.5; stroke-opacity: 1; stroke: rgb(80, 80, 80); fill: none;"></path><path class="link" marker-end="" d="M651,339, 831,479" style="stroke-width: 0.5; stroke-opacity: 1; stroke: rgb(80, 80, 80); fill: none;"></path><path class="link" marker-end="" d="M651,339, 831,519" style="stroke-width: 0.5; stroke-opacity: 1; stroke: rgb(80, 80, 80); fill: none;"></path><path class="link" marker-end="" d="M651,339, 831,559" style="stroke-width: 0.5; stroke-opacity: 1; stroke: rgb(80, 80, 80); fill: none;"></path><path class="link" marker-end="" d="M651,339, 831,599" style="stroke-width: 0.5; stroke-opacity: 1; stroke: rgb(80, 80, 80); fill: none;"></path><path class="link" marker-end="" d="M651,339, 831,639" style="stroke-width: 0.5; stroke-opacity: 1; stroke: rgb(80, 80, 80); fill: none;"></path><path class="link" marker-end="" d="M651,379, 831,199" style="stroke-width: 0.5; stroke-opacity: 1; stroke: rgb(80, 80, 80); fill: none;"></path><path class="link" marker-end="" d="M651,379, 831,239" style="stroke-width: 0.5; stroke-opacity: 1; stroke: rgb(80, 80, 80); fill: none;"></path><path class="link" marker-end="" d="M651,379, 831,279" style="stroke-width: 0.5; stroke-opacity: 1; stroke: rgb(80, 80, 80); fill: none;"></path><path class="link" marker-end="" d="M651,379, 831,319" style="stroke-width: 0.5; stroke-opacity: 1; stroke: rgb(80, 80, 80); fill: none;"></path><path class="link" marker-end="" d="M651,379, 831,359" style="stroke-width: 0.5; stroke-opacity: 1; stroke: rgb(80, 80, 80); fill: none;"></path><path class="link" marker-end="" d="M651,379, 831,399" style="stroke-width: 0.5; stroke-opacity: 1; stroke: rgb(80, 80, 80); fill: none;"></path><path class="link" marker-end="" d="M651,379, 831,439" style="stroke-width: 0.5; stroke-opacity: 1; stroke: rgb(80, 80, 80); fill: none;"></path><path class="link" marker-end="" d="M651,379, 831,479" style="stroke-width: 0.5; stroke-opacity: 1; stroke: rgb(80, 80, 80); fill: none;"></path><path class="link" marker-end="" d="M651,379, 831,519" style="stroke-width: 0.5; stroke-opacity: 1; stroke: rgb(80, 80, 80); fill: none;"></path><path class="link" marker-end="" d="M651,379, 831,559" style="stroke-width: 0.5; stroke-opacity: 1; stroke: rgb(80, 80, 80); fill: none;"></path><path class="link" marker-end="" d="M651,379, 831,599" style="stroke-width: 0.5; stroke-opacity: 1; stroke: rgb(80, 80, 80); fill: none;"></path><path class="link" marker-end="" d="M651,379, 831,639" style="stroke-width: 0.5; stroke-opacity: 1; stroke: rgb(80, 80, 80); fill: none;"></path><path class="link" marker-end="" d="M651,419, 831,199" style="stroke-width: 0.5; stroke-opacity: 1; stroke: rgb(80, 80, 80); fill: none;"></path><path class="link" marker-end="" d="M651,419, 831,239" style="stroke-width: 0.5; stroke-opacity: 1; stroke: rgb(80, 80, 80); fill: none;"></path><path class="link" marker-end="" d="M651,419, 831,279" style="stroke-width: 0.5; stroke-opacity: 1; stroke: rgb(80, 80, 80); fill: none;"></path><path class="link" marker-end="" d="M651,419, 831,319" style="stroke-width: 0.5; stroke-opacity: 1; stroke: rgb(80, 80, 80); fill: none;"></path><path class="link" marker-end="" d="M651,419, 831,359" style="stroke-width: 0.5; stroke-opacity: 1; stroke: rgb(80, 80, 80); fill: none;"></path><path class="link" marker-end="" d="M651,419, 831,399" style="stroke-width: 0.5; stroke-opacity: 1; stroke: rgb(80, 80, 80); fill: none;"></path><path class="link" marker-end="" d="M651,419, 831,439" style="stroke-width: 0.5; stroke-opacity: 1; stroke: rgb(80, 80, 80); fill: none;"></path><path class="link" marker-end="" d="M651,419, 831,479" style="stroke-width: 0.5; stroke-opacity: 1; stroke: rgb(80, 80, 80); fill: none;"></path><path class="link" marker-end="" d="M651,419, 831,519" style="stroke-width: 0.5; stroke-opacity: 1; stroke: rgb(80, 80, 80); fill: none;"></path><path class="link" marker-end="" d="M651,419, 831,559" style="stroke-width: 0.5; stroke-opacity: 1; stroke: rgb(80, 80, 80); fill: none;"></path><path class="link" marker-end="" d="M651,419, 831,599" style="stroke-width: 0.5; stroke-opacity: 1; stroke: rgb(80, 80, 80); fill: none;"></path><path class="link" marker-end="" d="M651,419, 831,639" style="stroke-width: 0.5; stroke-opacity: 1; stroke: rgb(80, 80, 80); fill: none;"></path><path class="link" marker-end="" d="M651,459, 831,199" style="stroke-width: 0.5; stroke-opacity: 1; stroke: rgb(80, 80, 80); fill: none;"></path><path class="link" marker-end="" d="M651,459, 831,239" style="stroke-width: 0.5; stroke-opacity: 1; stroke: rgb(80, 80, 80); fill: none;"></path><path class="link" marker-end="" d="M651,459, 831,279" style="stroke-width: 0.5; stroke-opacity: 1; stroke: rgb(80, 80, 80); fill: none;"></path><path class="link" marker-end="" d="M651,459, 831,319" style="stroke-width: 0.5; stroke-opacity: 1; stroke: rgb(80, 80, 80); fill: none;"></path><path class="link" marker-end="" d="M651,459, 831,359" style="stroke-width: 0.5; stroke-opacity: 1; stroke: rgb(80, 80, 80); fill: none;"></path><path class="link" marker-end="" d="M651,459, 831,399" style="stroke-width: 0.5; stroke-opacity: 1; stroke: rgb(80, 80, 80); fill: none;"></path><path class="link" marker-end="" d="M651,459, 831,439" style="stroke-width: 0.5; stroke-opacity: 1; stroke: rgb(80, 80, 80); fill: none;"></path><path class="link" marker-end="" d="M651,459, 831,479" style="stroke-width: 0.5; stroke-opacity: 1; stroke: rgb(80, 80, 80); fill: none;"></path><path class="link" marker-end="" d="M651,459, 831,519" style="stroke-width: 0.5; stroke-opacity: 1; stroke: rgb(80, 80, 80); fill: none;"></path><path class="link" marker-end="" d="M651,459, 831,559" style="stroke-width: 0.5; stroke-opacity: 1; stroke: rgb(80, 80, 80); fill: none;"></path><path class="link" marker-end="" d="M651,459, 831,599" style="stroke-width: 0.5; stroke-opacity: 1; stroke: rgb(80, 80, 80); fill: none;"></path><path class="link" marker-end="" d="M651,459, 831,639" style="stroke-width: 0.5; stroke-opacity: 1; stroke: rgb(80, 80, 80); fill: none;"></path><path class="link" marker-end="" d="M651,499, 831,199" style="stroke-width: 0.5; stroke-opacity: 1; stroke: rgb(80, 80, 80); fill: none;"></path><path class="link" marker-end="" d="M651,499, 831,239" style="stroke-width: 0.5; stroke-opacity: 1; stroke: rgb(80, 80, 80); fill: none;"></path><path class="link" marker-end="" d="M651,499, 831,279" style="stroke-width: 0.5; stroke-opacity: 1; stroke: rgb(80, 80, 80); fill: none;"></path><path class="link" marker-end="" d="M651,499, 831,319" style="stroke-width: 0.5; stroke-opacity: 1; stroke: rgb(80, 80, 80); fill: none;"></path><path class="link" marker-end="" d="M651,499, 831,359" style="stroke-width: 0.5; stroke-opacity: 1; stroke: rgb(80, 80, 80); fill: none;"></path><path class="link" marker-end="" d="M651,499, 831,399" style="stroke-width: 0.5; stroke-opacity: 1; stroke: rgb(80, 80, 80); fill: none;"></path><path class="link" marker-end="" d="M651,499, 831,439" style="stroke-width: 0.5; stroke-opacity: 1; stroke: rgb(80, 80, 80); fill: none;"></path><path class="link" marker-end="" d="M651,499, 831,479" style="stroke-width: 0.5; stroke-opacity: 1; stroke: rgb(80, 80, 80); fill: none;"></path><path class="link" marker-end="" d="M651,499, 831,519" style="stroke-width: 0.5; stroke-opacity: 1; stroke: rgb(80, 80, 80); fill: none;"></path><path class="link" marker-end="" d="M651,499, 831,559" style="stroke-width: 0.5; stroke-opacity: 1; stroke: rgb(80, 80, 80); fill: none;"></path><path class="link" marker-end="" d="M651,499, 831,599" style="stroke-width: 0.5; stroke-opacity: 1; stroke: rgb(80, 80, 80); fill: none;"></path><path class="link" marker-end="" d="M651,499, 831,639" style="stroke-width: 0.5; stroke-opacity: 1; stroke: rgb(80, 80, 80); fill: none;"></path><path class="link" marker-end="" d="M831,199, 1011,379" style="stroke-width: 0.5; stroke-opacity: 1; stroke: rgb(80, 80, 80); fill: none;"></path><path class="link" marker-end="" d="M831,239, 1011,379" style="stroke-width: 0.5; stroke-opacity: 1; stroke: rgb(80, 80, 80); fill: none;"></path><path class="link" marker-end="" d="M831,279, 1011,379" style="stroke-width: 0.5; stroke-opacity: 1; stroke: rgb(80, 80, 80); fill: none;"></path><path class="link" marker-end="" d="M831,319, 1011,379" style="stroke-width: 0.5; stroke-opacity: 1; stroke: rgb(80, 80, 80); fill: none;"></path><path class="link" marker-end="" d="M831,359, 1011,379" style="stroke-width: 0.5; stroke-opacity: 1; stroke: rgb(80, 80, 80); fill: none;"></path><path class="link" marker-end="" d="M831,399, 1011,379" style="stroke-width: 0.5; stroke-opacity: 1; stroke: rgb(80, 80, 80); fill: none;"></path><path class="link" marker-end="" d="M831,439, 1011,379" style="stroke-width: 0.5; stroke-opacity: 1; stroke: rgb(80, 80, 80); fill: none;"></path><path class="link" marker-end="" d="M831,479, 1011,379" style="stroke-width: 0.5; stroke-opacity: 1; stroke: rgb(80, 80, 80); fill: none;"></path><path class="link" marker-end="" d="M831,519, 1011,379" style="stroke-width: 0.5; stroke-opacity: 1; stroke: rgb(80, 80, 80); fill: none;"></path><path class="link" marker-end="" d="M831,559, 1011,379" style="stroke-width: 0.5; stroke-opacity: 1; stroke: rgb(80, 80, 80); fill: none;"></path><path class="link" marker-end="" d="M831,599, 1011,379" style="stroke-width: 0.5; stroke-opacity: 1; stroke: rgb(80, 80, 80); fill: none;"></path><path class="link" marker-end="" d="M831,639, 1011,379" style="stroke-width: 0.5; stroke-opacity: 1; stroke: rgb(80, 80, 80); fill: none;"></path><path class="link" marker-end="" d="M831,199, 1011,419" style="stroke-width: 0.5; stroke-opacity: 1; stroke: rgb(80, 80, 80); fill: none;"></path><path class="link" marker-end="" d="M831,239, 1011,419" style="stroke-width: 0.5; stroke-opacity: 1; stroke: rgb(80, 80, 80); fill: none;"></path><path class="link" marker-end="" d="M831,279, 1011,419" style="stroke-width: 0.5; stroke-opacity: 1; stroke: rgb(80, 80, 80); fill: none;"></path><path class="link" marker-end="" d="M831,319, 1011,419" style="stroke-width: 0.5; stroke-opacity: 1; stroke: rgb(80, 80, 80); fill: none;"></path><path class="link" marker-end="" d="M831,359, 1011,419" style="stroke-width: 0.5; stroke-opacity: 1; stroke: rgb(80, 80, 80); fill: none;"></path><path class="link" marker-end="" d="M831,399, 1011,419" style="stroke-width: 0.5; stroke-opacity: 1; stroke: rgb(80, 80, 80); fill: none;"></path><path class="link" marker-end="" d="M831,439, 1011,419" style="stroke-width: 0.5; stroke-opacity: 1; stroke: rgb(80, 80, 80); fill: none;"></path><path class="link" marker-end="" d="M831,479, 1011,419" style="stroke-width: 0.5; stroke-opacity: 1; stroke: rgb(80, 80, 80); fill: none;"></path><path class="link" marker-end="" d="M831,519, 1011,419" style="stroke-width: 0.5; stroke-opacity: 1; stroke: rgb(80, 80, 80); fill: none;"></path><path class="link" marker-end="" d="M831,559, 1011,419" style="stroke-width: 0.5; stroke-opacity: 1; stroke: rgb(80, 80, 80); fill: none;"></path><path class="link" marker-end="" d="M831,599, 1011,419" style="stroke-width: 0.5; stroke-opacity: 1; stroke: rgb(80, 80, 80); fill: none;"></path><path class="link" marker-end="" d="M831,639, 1011,419" style="stroke-width: 0.5; stroke-opacity: 1; stroke: rgb(80, 80, 80); fill: none;"></path><path class="link" marker-end="" d="M831,199, 1011,459" style="stroke-width: 0.5; stroke-opacity: 1; stroke: rgb(80, 80, 80); fill: none;"></path><path class="link" marker-end="" d="M831,239, 1011,459" style="stroke-width: 0.5; stroke-opacity: 1; stroke: rgb(80, 80, 80); fill: none;"></path><path class="link" marker-end="" d="M831,279, 1011,459" style="stroke-width: 0.5; stroke-opacity: 1; stroke: rgb(80, 80, 80); fill: none;"></path><path class="link" marker-end="" d="M831,319, 1011,459" style="stroke-width: 0.5; stroke-opacity: 1; stroke: rgb(80, 80, 80); fill: none;"></path><path class="link" marker-end="" d="M831,359, 1011,459" style="stroke-width: 0.5; stroke-opacity: 1; stroke: rgb(80, 80, 80); fill: none;"></path><path class="link" marker-end="" d="M831,399, 1011,459" style="stroke-width: 0.5; stroke-opacity: 1; stroke: rgb(80, 80, 80); fill: none;"></path><path class="link" marker-end="" d="M831,439, 1011,459" style="stroke-width: 0.5; stroke-opacity: 1; stroke: rgb(80, 80, 80); fill: none;"></path><path class="link" marker-end="" d="M831,479, 1011,459" style="stroke-width: 0.5; stroke-opacity: 1; stroke: rgb(80, 80, 80); fill: none;"></path><path class="link" marker-end="" d="M831,519, 1011,459" style="stroke-width: 0.5; stroke-opacity: 1; stroke: rgb(80, 80, 80); fill: none;"></path><path class="link" marker-end="" d="M831,559, 1011,459" style="stroke-width: 0.5; stroke-opacity: 1; stroke: rgb(80, 80, 80); fill: none;"></path><path class="link" marker-end="" d="M831,599, 1011,459" style="stroke-width: 0.5; stroke-opacity: 1; stroke: rgb(80, 80, 80); fill: none;"></path><path class="link" marker-end="" d="M831,639, 1011,459" style="stroke-width: 0.5; stroke-opacity: 1; stroke: rgb(80, 80, 80); fill: none;"></path><circle r="10" class="node" id="0_0" cx="651" cy="339" style="fill: rgb(255, 255, 255); stroke: rgb(51, 51, 51);"></circle><circle r="10" class="node" id="0_1" cx="651" cy="379" style="fill: rgb(255, 255, 255); stroke: rgb(51, 51, 51);"></circle><circle r="10" class="node" id="0_2" cx="651" cy="419" style="fill: rgb(255, 255, 255); stroke: rgb(51, 51, 51);"></circle><circle r="10" class="node" id="0_3" cx="651" cy="459" style="fill: rgb(255, 255, 255); stroke: rgb(51, 51, 51);"></circle><circle r="10" class="node" id="0_4" cx="651" cy="499" style="fill: rgb(255, 255, 255); stroke: rgb(51, 51, 51);"></circle><circle r="10" class="node" id="1_0" cx="831" cy="199" style="fill: rgb(255, 255, 255); stroke: rgb(51, 51, 51);"></circle><circle r="10" class="node" id="1_1" cx="831" cy="239" style="fill: rgb(255, 255, 255); stroke: rgb(51, 51, 51);"></circle><circle r="10" class="node" id="1_2" cx="831" cy="279" style="fill: rgb(255, 255, 255); stroke: rgb(51, 51, 51);"></circle><circle r="10" class="node" id="1_3" cx="831" cy="319" style="fill: rgb(255, 255, 255); stroke: rgb(51, 51, 51);"></circle><circle r="10" class="node" id="1_4" cx="831" cy="359" style="fill: rgb(255, 255, 255); stroke: rgb(51, 51, 51);"></circle><circle r="10" class="node" id="1_5" cx="831" cy="399" style="fill: rgb(255, 255, 255); stroke: rgb(51, 51, 51);"></circle><circle r="10" class="node" id="1_6" cx="831" cy="439" style="fill: rgb(255, 255, 255); stroke: rgb(51, 51, 51);"></circle><circle r="10" class="node" id="1_7" cx="831" cy="479" style="fill: rgb(255, 255, 255); stroke: rgb(51, 51, 51);"></circle><circle r="10" class="node" id="1_8" cx="831" cy="519" style="fill: rgb(255, 255, 255); stroke: rgb(51, 51, 51);"></circle><circle r="10" class="node" id="1_9" cx="831" cy="559" style="fill: rgb(255, 255, 255); stroke: rgb(51, 51, 51);"></circle><circle r="10" class="node" id="1_10" cx="831" cy="599" style="fill: rgb(255, 255, 255); stroke: rgb(51, 51, 51);"></circle><circle r="10" class="node" id="1_11" cx="831" cy="639" style="fill: rgb(255, 255, 255); stroke: rgb(51, 51, 51);"></circle><circle r="10" class="node" id="2_0" cx="1011" cy="379" style="fill: rgb(255, 255, 255); stroke: rgb(51, 51, 51);"></circle><text class="text" dy=".35em" x="616" y="679" style="font-size: 12px;">Input Layer ∈ ℝ⁵</text><text class="text" dy=".35em" x="796" y="679" style="font-size: 12px;">Hidden Layer ∈ ℝ¹²</text><text class="text" dy=".35em" x="976" y="679" style="font-size: 12px;">Output Layer ∈ ℝ³</text><circle r="10" class="node" id="2_1" cx="1011" cy="419" style="fill: rgb(255, 255, 255); stroke: rgb(51, 51, 51);"></circle><circle r="10" class="node" id="2_2" cx="1011" cy="459" style="fill: rgb(255, 255, 255); stroke: rgb(51, 51, 51);"></circle></g><defs><marker id="arrow" viewBox="0 -5 10 10" markerWidth="7" markerHeight="7" orient="auto" refX="40"><path d="M0,-5L10,0L0,5" style="stroke: rgb(80, 80, 80); fill: rgb(80, 80, 80);"></path></marker></defs></svg>